# AST/ASF file generated using VICON BodyLanguage
# -----------------------------------------------
:version 1.10
:name VICON
:units
  mass 1.0
  length 0.45
  angle deg
:documentation
   .ast/.asf automatically generated from VICON data using
   VICON BodyBuilder and BodyLanguage model FoxedUp or BRILLIANT.MOD
:root
   order TX TY TZ RX RY RZ
   axis XYZ
   position 0 0 0  
   orientation 0 0 0 
:bonedata
  begin
     id 1 
     name lhipjoint
     direction 0.700308 -0.549349 0.455834 
     length 2.59063 
     axis 0 0 0  XYZ
  end
  begin
     id 2 
     name lfemur
     direction 0.34202 -0.939693 0  
     length 6.31066  
     axis 0 0 20  XYZ
    dof rx ry rz
    limits (-160.0 20.0)
           (-70.0 70.0)
           (-60.0 70.0)
  end
  begin
     id 3 
     name ltibia
     direction 0.34202 -0.939693 0   
     length 7.36093   
     axis 0 0 20   XYZ
    dof rx
    limits (-10.0 170.0)
  end
  begin
     id 4 
     name lfoot
     direction 0.0905332 -0.248738 0.96433   
     length 2.0233   
     axis -90 7.62852e-016 20   XYZ
    dof rx rz
    limits (-45.0 90.0)
           (-70.0 20.0)
  end
  begin
     id 5 
     name ltoes
     direction 1.53573e-011 -4.21855e-011 1   
     length 1.01524   
     axis -90 7.62852e-016 20   XYZ
    dof rx
    limits (-90.0 20.0)
  end
  begin
     id 6 
     name rhipjoint
     direction -0.61416 -0.607328 0.503944   
     length 2.34332  
     axis 0 0 0  XYZ 
  end
  begin
     id 7 
     name rfemur
     direction -0.34202 -0.939693 0   
     length 6.58548   
     axis 0 0 -20   XYZ
    dof rx ry rz
    limits (-160.0 20.0)
           (-70.0 70.0)
           (-70.0 60.0)
  end
  begin
     id 8 
     name rtibia
     direction -0.34202 -0.939693 0   
     length 7.20707   
     axis 0 0 -20   XYZ
    dof rx
    limits (-10.0 170.0)
 end
 begin
     id 9 
     name rfoot
     direction -0.136772 -0.375778 0.916561   
     length 1.92184  
     axis -90 -7.62852e-016 -20   XYZ
    dof rx rz
    limits (-45.0 90.0)
           (-20.0 70.0)
  end
  begin
     id 10 
     name rtoes
     direction -1.53535e-011 -4.21828e-011 1   
     length 0.951089   
     axis -90 -7.62852e-016 -20   XYZ
    dof rx
    limits (-90.0 20.0)
  end
  begin
     id 11 
     name lowerback
     direction -0.0444974 0.988086 -0.147332   
     length 1.9609   
     axis 0 0 0   XYZ
    dof rx ry rz
    limits (-20.0 45.0)
           (-30.0 30.0)
           (-30.0 30.0)
  end
  begin
     id 12 
     name upperback
     direction 0.00613146 0.999513 0.0306081   
     length 1.94944   
     axis 0 0 0   XYZ
    dof rx ry rz
    limits (-20.0 45.0)
           (-30.0 30.0)
           (-30.0 30.0)
  end
  begin
     id 13 
     name thorax
     direction 0.0254621 0.994518 0.101418   
     length 2.0119   
     axis 0 0 0   XYZ
    dof rx ry rz
    limits (-20.0 45.0)
           (-30.0 30.0)
           (-30.0 30.0)
  end
  begin
     id 14 
     name lowerneck
     direction 0.0168698 0.977854 0.208608   
     length 1.6375   
     axis 0 0 0   XYZ
    dof rx ry rz
    limits (-20.0 45.0)
           (-30.0 30.0)
           (-30.0 30.0)
  end
  begin
     id 15 
     name upperneck
     direction -0.0283988 0.989338 -0.142843   
     length 1.6851   
     axis 0 0 0   XYZ
    dof rx ry rz
    limits (-20.0 45.0)
           (-30.0 30.0)
           (-30.0 30.0)
  end
  begin
     id 16
     name head
     direction -0.0129422 0.99741 -0.0707489  
     length 1.69029  
     axis 0 0 0   XYZ
    dof rx ry rz
    limits (-20.0 45.0)
           (-30.0 30.0)
           (-30.0 30.0)
  end
  begin
     id 17 
     name lclavicle
     direction 0.820295 0.564628 -0.0911715  
     length 3.16484  
     axis 0 0 0   XYZ
    dof ry rz
    limits (-20.0 10.0)
           (0.0 20.0)
  end
  begin
     id 18 
     name lhumerus
     direction 1 -4.48969e-011 1.00186e-027   
     length 5.17853   
     axis 180 -30 -90   XYZ
    dof rx ry rz
    limits (-60.0 90.0)
           (-90.0 90.0)
           (-90.0 90.0)
  end
  begin
     id 19
     name lradius
     direction 1 -4.48966e-011 -1.52922e-027   
     length 3.40399   
     axis 180 -30 -90   XYZ
    dof rx
    limits (-10.0 170.0)
  end
  begin
     id 20
     name lwrist
     direction 1 -4.48981e-011 -3.80893e-027   
     length 1.70199   
     axis 1.1049e-015 90 90   XYZ
    dof ry
    limits (-180.0 0.0)
 end
  begin
     id 21 
     name lhand
     direction 1 -4.48957e-011 -7.61786e-027   
     length 0.708964   
     axis 4.86085e-015 90 90   XYZ
    dof rx rz
    limits (-90.0 90.0)
           (-45.0 45.0)
  end
  begin
     id 22 
     name lfingers
     direction 1 -4.48929e-011 -1.52357e-026   
     length 0.571585   
     axis 9.7217e-015 90 90   XYZ
    dof rx
    limits (0.0 90.0)
  end
  begin
     id 23
     name lthumb
     direction 0.707107 -6.34905e-011 0.707107   
     length 0.820685   
     axis -90 45 2.85299e-015   XYZ
    dof rx rz
    limits (-45.0 45.0)
           (-45.0 45.0)
  end
  begin
     id 24 
     name rclavicle
     direction -0.858602 0.463947 -0.218075   
     length 3.35137  
     axis 0 0 0   XYZ 
    dof ry rz
    limits (-10.0 20.0)
           (-20.0 0.0)
  end
  begin
     id 25 
     name rhumerus
     direction -1 -4.48969e-011 -1.98511e-027  
     length 5.42351   
     axis 180 30 90   XYZ
    dof rx ry rz
    limits (-90.0 60.0)
           (-90.0 90.0)
           (-90.0 90.0)
  end
  begin
     id 26 
     name rradius
     direction -1 -4.48961e-011 -2.82624e-027   
     length 3.42066   
     axis 180 30 90   XYZ
    dof rx
    limits (-10.0 170.0)
  end
  begin
     id 27 
     name rwrist
     direction -1 -4.48966e-011 -3.80893e-027   
     length 1.71033   
     axis 1.1049e-015 -90 -90   XYZ
    dof ry
    limits (-180.0 0.0)
  end
  begin
     id 28
     name rhand
     direction -1 -4.48964e-011 -7.61786e-027   
     length 0.743608   
     axis 4.86085e-015 -90 -90   XYZ
    dof rx rz
    limits (-90.0 90.0)
           (-45.0 45.0)
  end
  begin
     id 29
     name rfingers
     direction -1 -4.48961e-011 -1.52357e-026   
     length 0.599516   
     axis 9.7217e-015 -90 -90   XYZ
    dof rx
    limits (0.0 90.0)
  end
  begin
     id 30
     name rthumb
     direction -0.707107 -6.34913e-011 0.707107   
     length 0.860789   
     axis -90 -45 -2.85299e-015   XYZ
    dof rx rz
    limits (-45.0 45.0)
           (-45.0 45.0)
  end
:hierarchy
  begin
    root lhipjoint rhipjoint lowerback
    lhipjoint lfemur
    lfemur ltibia
    ltibia lfoot
    lfoot ltoes
    rhipjoint rfemur
    rfemur rtibia
    rtibia rfoot
    rfoot rtoes
    lowerback upperback
    upperback thorax
    thorax lowerneck lclavicle rclavicle
    lowerneck upperneck
    upperneck head
    lclavicle lhumerus
    lhumerus lradius
    lradius lwrist
    lwrist lhand lthumb
    lhand lfingers
    rclavicle rhumerus
    rhumerus rradius
    rradius rwrist
    rwrist rhand rthumb
    rhand rfingers
  end

#!OML:ASF E:\mmandel\Project 1\Capture day 1\Session 2\Subject.ASF
:FULLY-SPECIFIED
:DEGREES
337
root -3.54838 2.59452 -1.53875 25.5895 90.4587 72.3837
lowerback 39.2821 -1.62303 -0.922657
upperback 18.4348 0.513662 -0.642641
thorax 1.20723 1.5363 -0.333099
lowerneck -5.48367 -2.63947 5.27492
upperneck 36.7351 -2.50683 -1.3039
head 13.1211 0.0842819 -1.61006
rclavicle 6.41081e-015 3.77691e-015
rhumerus -53.6066 14.7749 -75.3822
rradius 89.4216
rwrist -50.1842
rhand -25.2275 14.9174
rfingers 7.12502
rthumb 1.29183 -15.0585
lclavicle 6.41081e-015 3.77691e-015
lhumerus -49.3441 -58.9277 77.1895
lradius 76.3637
lwrist 65.5637
lhand -28.0878 -13.8169
lfingers 7.12502
lthumb -1.47069 16.1578
rfemur -85.2477 -33.5471 36.7265
rtibia 75.5159
rfoot 7.72835 -16.5234
rtoes 12.0567
lfemur -90.9086 22.9964 -22.6837
ltibia 91.7637
lfoot 23.9126 -3.45663
ltoes 12.8189
338
root -3.53445 2.60799 -1.53985 77.2119 90.7074 123.591
lowerback 40.4167 -1.5974 -0.673982
upperback 17.8722 0.591857 -0.628714
thorax 0.407024 1.57741 -0.502599
lowerneck -5.55192 -2.5844 5.16188
upperneck 36.7841 -2.45649 -1.1685
head 13.1651 0.107587 -1.53273
rclavicle -4.99446e-015 -1.09332e-015
rhumerus -54.8381 15.2682 -76.2386
rradius 89.6546
rwrist -51.9514
rhand -25.5468 14.5134
rfingers 7.12502
rthumb 0.983445 -15.464
lclavicle -4.99446e-015 -1.09332e-015
lhumerus -50.4347 -58.1165 77.7715
lradius 76.6991
lwrist 65.5582
lhand -28.0865 -12.8402
lfingers 7.12502
lthumb -1.46949 17.1345
rfemur -85.6491 -33.1806 37.4893
rtibia 75.6481
rfoot 7.69272 -16.5478
rtoes 12.6594
lfemur -91.592 23.4771 -22.4361
ltibia 92.0046
lfoot 23.7943 -3.18339
ltoes 14.1916
339
root -3.50392 2.62359 -1.54292 86.4047 91.4888 131.462
lowerback 40.38 -1.66218 -0.0364868
upperback 17.3397 0.631194 -0.458184
thorax -0.182497 1.57069 -0.678344
lowerneck -5.4133 -2.55939 5.14089
upperneck 36.7142 -2.3736 -1.26171
head 13.105 0.125973 -1.55355
rclavicle 2.98177e-016 -2.38542e-015
rhumerus -56.1837 15.7223 -76.978
rradius 89.9458
rwrist -53.5283
rhand -25.9139 14.0352
rfingers 7.12502
rthumb 0.628882 -15.9436
lclavicle 2.98177e-016 -2.38542e-015
lhumerus -51.3402 -57.422 78.3539
lradius 77.0017
lwrist 66.2158
lhand -27.9679 -12.054
lfingers 7.12502
lthumb -1.35489 17.9214
rfemur -87.2434 -32.5955 39.1276
rtibia 75.8406
rfoot 7.71861 -16.6187
rtoes 13.1173
lfemur -93.5971 23.6519 -22.261
ltibia 92.3602
lfoot 23.3444 -2.63026
ltoes 16.7316
340
root -3.46709 2.64243 -1.54403 75.5968 91.7096 119.288
lowerback 38.6622 -1.75511 0.117332
upperback 17.8277 0.5414 -0.330312
thorax 0.707581 1.5153 -0.564031
lowerneck -5.43354 -2.47767 5.30458
upperneck 36.1865 -2.26711 -1.47635
head 12.873 0.132979 -1.65216
rclavicle 5.7896e-015 7.35503e-015
rhumerus -56.4284 15.8943 -77.3449
rradius 90.0671
rwrist -54.9644
rhand -25.8528 13.4426
rfingers 7.12502
rthumb 0.687947 -16.536
lclavicle 5.7896e-015 7.35503e-015
lhumerus -50.1475 -56.7913 77.3818
lradius 77.0798
lwrist 67.455
lhand -28.331 -15.1892
lfingers 7.12502
lthumb -1.70562 14.7837
rfemur -89.1523 -32.4277 40.1483
rtibia 76.1557
rfoot 7.8744 -16.5635
rtoes 13.4368
lfemur -95.4759 23.3174 -22.818
ltibia 92.624
lfoot 24.6841 -3.1885
ltoes 13.7865
341
root -3.43264 2.65638 -1.55041 101.153 91.1831 143.995
lowerback 38.3995 -1.26655 -0.465621
upperback 17.8058 0.921603 -0.542715
thorax 0.770824 1.66768 -0.601903
lowerneck -5.54218 -2.51389 5.58915
upperneck 35.9704 -2.40716 -1.46413
head 12.7931 0.0954828 -1.71426
rclavicle 7.45443e-016 -1.39149e-015
rhumerus -57.1071 15.7848 -77.985
rradius 90.1766
rwrist -56.3326
rhand -25.7485 12.7736
rfingers 7.12502
rthumb 0.788656 -17.2047
lclavicle 7.45443e-016 -1.39149e-015
lhumerus -49.5869 -56.6946 76.7802
lradius 77.2627
lwrist 68.5486
lhand -28.241 -16.5998
lfingers 7.12502
lthumb -1.61871 13.3738
rfemur -90.2937 -31.632 40.1655
rtibia 76.414
rfoot 8.25597 -16.3025
rtoes 13.6496
lfemur -96.6058 23.9792 -23.8821
ltibia 92.9528
lfoot 24.6074 -3.86929
ltoes 11.1819
